<svg id="Layer_1" data-name="Layer 1" xmlns="http://www.w3.org/2000/svg" viewBox="0 0 513.1 370.59"><title>logo</title><path d="M758.56,276.79a19.68,19.68,0,0,0-17.53,0,17.3,17.3,0,0,0-3.8,2.42,16,16,0,0,0-1.5,1.37,17.81,17.81,0,0,0-1.47,1.62,19.14,19.14,0,0,0-3.62,7.15,18.71,18.71,0,0,0-.5,7,17.08,17.08,0,0,0,1.59,5.64,16.13,16.13,0,0,0,1.15,2.12c.42.61.84,1.15,1.2,1.64a15.62,15.62,0,0,0,2,2l.74.64-.56-.81a23.45,23.45,0,0,1-1.4-2.32c-.23-.54-.51-1.11-.77-1.75s-.52-1.33-.68-2.11a18.09,18.09,0,0,1-.58-5.16A18.51,18.51,0,0,1,734,290.4a17.52,17.52,0,0,1,3.43-5.53,14,14,0,0,1,1.17-1.15,12.41,12.41,0,0,1,1.44-1.16,13.41,13.41,0,0,1,1.4-.88,12.48,12.48,0,0,1,1.54-.8,16.78,16.78,0,0,1,13.69,0,17.14,17.14,0,0,1,5.59,4,17.83,17.83,0,0,1,3.39,5.49,18.68,18.68,0,0,1,1.15,5.86,18.12,18.12,0,0,1-.59,5.16c-.15.78-.48,1.44-.67,2.11s-.54,1.21-.77,1.74a23.11,23.11,0,0,1-1.41,2.33l-.55.81.74-.64a16.29,16.29,0,0,0,2-2c.35-.49.77-1,1.19-1.64a18.38,18.38,0,0,0,2.75-7.76,19.1,19.1,0,0,0-4.17-14.25A19.53,19.53,0,0,0,758.56,276.79Z" transform="translate(-353.81 -205.45)" style="fill:#FFFFFF"/><path d="M573.64,305.29c-.23-.54-.51-1.11-.77-1.75s-.52-1.33-.67-2.11a18.07,18.07,0,0,1-.59-5.16,18.51,18.51,0,0,1,1.15-5.87,17.52,17.52,0,0,1,3.43-5.53,14,14,0,0,1,1.17-1.15,14.36,14.36,0,0,1,1.44-1.16,13.41,13.41,0,0,1,1.4-.88,12.61,12.61,0,0,1,1.55-.8,16.17,16.17,0,0,1,6.84-1.46,16.36,16.36,0,0,1,6.84,1.46,17.14,17.14,0,0,1,5.59,4,17.46,17.46,0,0,1,3.39,5.49,18.4,18.4,0,0,1,1.15,5.86,18.12,18.12,0,0,1-.59,5.16c-.15.78-.48,1.44-.67,2.11s-.53,1.21-.77,1.74a25.49,25.49,0,0,1-1.4,2.33l-.56.81.75-.64a16.36,16.36,0,0,0,2-2c.36-.49.78-1,1.2-1.64a17.39,17.39,0,0,0,1.15-2.12,17.08,17.08,0,0,0,1.59-5.64,19,19,0,0,0-4.17-14.25,19.58,19.58,0,0,0-6.72-5.36,19.7,19.7,0,0,0-17.54,0,17.24,17.24,0,0,0-3.79,2.42,15,15,0,0,0-1.51,1.37,17.64,17.64,0,0,0-1.46,1.62,18.85,18.85,0,0,0-3.62,7.15,18.53,18.53,0,0,0-.51,7,17.08,17.08,0,0,0,1.59,5.64,17.39,17.39,0,0,0,1.15,2.12c.42.61.84,1.15,1.2,1.64a16.31,16.31,0,0,0,2,2l.75.64-.56-.81A23.19,23.19,0,0,1,573.64,305.29Z" transform="translate(-353.81 -205.45)" style="fill:#FFFFFF"/><path d="M747.43,261.45a11.12,11.12,0,0,0,.47,1.2s.2-.43.46-1.2a32.1,32.1,0,0,0,.9-3.15,47.08,47.08,0,0,0,0-19.16,30.15,30.15,0,0,0-.89-3.16c-.26-.76-.46-1.19-.46-1.19a11.39,11.39,0,0,0-.47,1.19c-.26.77-.59,1.85-.89,3.16a46.34,46.34,0,0,0-1,9.58,45,45,0,0,0,1,9.58A29.86,29.86,0,0,0,747.43,261.45Z" transform="translate(-353.81 -205.45)" style="fill:#FFFFFF"/><path d="M748.36,326.29c-.26-.76-.46-1.2-.46-1.2a12.35,12.35,0,0,0-.47,1.2,32.5,32.5,0,0,0-.89,3.15,46.42,46.42,0,0,0-1,9.58,44.94,44.94,0,0,0,1,9.58,29.45,29.45,0,0,0,.89,3.16,12.35,12.35,0,0,0,.47,1.2s.2-.44.46-1.2a31.61,31.61,0,0,0,.9-3.16,47.08,47.08,0,0,0,0-19.16A29.86,29.86,0,0,0,748.36,326.29Z" transform="translate(-353.81 -205.45)" style="fill:#FFFFFF"/><path d="M787.55,331.62A46.86,46.86,0,0,0,774,318.06a29.7,29.7,0,0,0-2.86-1.6c-.73-.35-1.18-.51-1.18-.51s.17.45.52,1.17a30.91,30.91,0,0,0,1.6,2.87,44.89,44.89,0,0,0,6.08,7.47,45.4,45.4,0,0,0,7.47,6.07,31,31,0,0,0,2.86,1.6,11.09,11.09,0,0,0,1.18.52s-.17-.45-.52-1.17A28.06,28.06,0,0,0,787.55,331.62Z" transform="translate(-353.81 -205.45)" style="fill:#FFFFFF"/><path d="M708.24,256.13a46.66,46.66,0,0,0,13.55,13.54,30.14,30.14,0,0,0,2.86,1.61c.72.35,1.17.52,1.17.52a11.09,11.09,0,0,0-.52-1.18,31,31,0,0,0-1.6-2.86,45.4,45.4,0,0,0-6.07-7.47,44.48,44.48,0,0,0-7.47-6.08,30.91,30.91,0,0,0-2.87-1.6,11.64,11.64,0,0,0-1.17-.52s.16.45.51,1.18A29.18,29.18,0,0,0,708.24,256.13Z" transform="translate(-353.81 -205.45)" style="fill:#FFFFFF"/><path d="M802.63,292.52a47.08,47.08,0,0,0-19.16,0c-1.31.3-2.39.63-3.16.89s-1.19.47-1.19.47a11.39,11.39,0,0,0,1.19.47,30.15,30.15,0,0,0,3.16.89,44.41,44.41,0,0,0,9.58,1,45,45,0,0,0,9.58-1,29.86,29.86,0,0,0,3.15-.89c.77-.26,1.2-.46,1.2-.46s-.43-.2-1.2-.46A29.86,29.86,0,0,0,802.63,292.52Z" transform="translate(-353.81 -205.45)" style="fill:#FFFFFF"/><path d="M715.48,294.33c.76-.26,1.2-.46,1.2-.46s-.44-.2-1.2-.46a29.45,29.45,0,0,0-3.16-.89,47,47,0,0,0-19.15,0,32,32,0,0,0-3.16.89c-.76.27-1.2.47-1.2.47a12.35,12.35,0,0,0,1.2.47,29.45,29.45,0,0,0,3.16.89,44.31,44.31,0,0,0,9.57,1,44.94,44.94,0,0,0,9.58-1A29.45,29.45,0,0,0,715.48,294.33Z" transform="translate(-353.81 -205.45)" style="fill:#FFFFFF"/><path d="M774,269.68a47,47,0,0,0,13.54-13.55,30.39,30.39,0,0,0,1.61-2.86c.35-.73.52-1.18.52-1.18s-.46.17-1.18.52a31,31,0,0,0-2.86,1.6,45.5,45.5,0,0,0-7.47,6.08,44.09,44.09,0,0,0-6.08,7.47,29.7,29.7,0,0,0-1.6,2.86c-.35.72-.52,1.18-.52,1.18s.45-.17,1.18-.52A29.7,29.7,0,0,0,774,269.68Z" transform="translate(-353.81 -205.45)" style="fill:#FFFFFF"/><path d="M721.79,318.07a46.66,46.66,0,0,0-13.55,13.54,30.39,30.39,0,0,0-1.61,2.86c-.35.73-.51,1.18-.51,1.18a11.64,11.64,0,0,0,1.17-.52,30.91,30.91,0,0,0,2.87-1.6,44.89,44.89,0,0,0,7.47-6.07A45.86,45.86,0,0,0,723.7,320a29.7,29.7,0,0,0,1.6-2.86,11.64,11.64,0,0,0,.52-1.17,11.64,11.64,0,0,0-1.17.52A29.7,29.7,0,0,0,721.79,318.07Z" transform="translate(-353.81 -205.45)" style="fill:#FFFFFF"/><path d="M588.12,261.45a11.12,11.12,0,0,0,.47,1.2s.2-.43.46-1.2a29.52,29.52,0,0,0,.9-3.15,47.08,47.08,0,0,0,0-19.16,30.15,30.15,0,0,0-.89-3.16c-.26-.76-.46-1.19-.46-1.19a11.39,11.39,0,0,0-.47,1.19c-.26.77-.58,1.85-.88,3.16a45.62,45.62,0,0,0-1,9.58,45,45,0,0,0,1,9.58A29.86,29.86,0,0,0,588.12,261.45Z" transform="translate(-353.81 -205.45)" style="fill:#FFFFFF"/><path d="M589.05,326.29c-.26-.76-.46-1.2-.46-1.2a12.35,12.35,0,0,0-.47,1.2c-.26.76-.58,1.85-.88,3.15a45.69,45.69,0,0,0-1,9.58,44.94,44.94,0,0,0,1,9.58,29.45,29.45,0,0,0,.89,3.16,12.35,12.35,0,0,0,.47,1.2s.2-.44.46-1.2a29.12,29.12,0,0,0,.9-3.16,47.08,47.08,0,0,0,0-19.16A29.86,29.86,0,0,0,589.05,326.29Z" transform="translate(-353.81 -205.45)" style="fill:#FFFFFF"/><path d="M628.24,331.62a46.86,46.86,0,0,0-13.54-13.56,29.7,29.7,0,0,0-2.86-1.6,12.1,12.1,0,0,0-1.18-.51s.17.45.52,1.17a30.91,30.91,0,0,0,1.6,2.87,44.89,44.89,0,0,0,6.08,7.47,45.4,45.4,0,0,0,7.47,6.07,32.32,32.32,0,0,0,2.86,1.6,12.29,12.29,0,0,0,1.18.52s-.17-.45-.52-1.17A28.06,28.06,0,0,0,628.24,331.62Z" transform="translate(-353.81 -205.45)" style="fill:#FFFFFF"/><path d="M564.39,267.76a47,47,0,0,0-13.54-13.55,32.32,32.32,0,0,0-2.86-1.6,12.29,12.29,0,0,0-1.18-.52,12.29,12.29,0,0,0,.52,1.18,28.75,28.75,0,0,0,1.6,2.86,46.66,46.66,0,0,0,13.55,13.54,30.14,30.14,0,0,0,2.86,1.61c.72.35,1.17.52,1.17.52a11.09,11.09,0,0,0-.52-1.18A31,31,0,0,0,564.39,267.76Z" transform="translate(-353.81 -205.45)" style="fill:#FFFFFF"/><path d="M643.32,292.52a47.08,47.08,0,0,0-19.16,0c-1.3.3-2.39.63-3.16.89s-1.19.47-1.19.47a11.39,11.39,0,0,0,1.19.47,30.88,30.88,0,0,0,3.16.89,44.41,44.41,0,0,0,9.58,1,45,45,0,0,0,9.58-1,30.15,30.15,0,0,0,3.16-.89c.76-.26,1.19-.46,1.19-.46s-.43-.2-1.19-.46A30.15,30.15,0,0,0,643.32,292.52Z" transform="translate(-353.81 -205.45)" style="fill:#FFFFFF"/><path d="M556.17,294.33c.76-.26,1.2-.46,1.2-.46s-.44-.2-1.2-.46a29.45,29.45,0,0,0-3.16-.89,47,47,0,0,0-19.15,0,32,32,0,0,0-3.16.89c-.76.27-1.2.47-1.2.47a12.35,12.35,0,0,0,1.2.47,29.45,29.45,0,0,0,3.16.89,44.34,44.34,0,0,0,9.58,1,44.91,44.91,0,0,0,9.57-1A29.45,29.45,0,0,0,556.17,294.33Z" transform="translate(-353.81 -205.45)" style="fill:#FFFFFF"/><path d="M614.7,269.68a47,47,0,0,0,13.54-13.55,30.39,30.39,0,0,0,1.61-2.86c.35-.73.52-1.18.52-1.18s-.45.17-1.18.52a32.32,32.32,0,0,0-2.86,1.6,45.5,45.5,0,0,0-7.47,6.08,44.09,44.09,0,0,0-6.08,7.47,29.7,29.7,0,0,0-1.6,2.86c-.35.72-.52,1.18-.52,1.18s.46-.17,1.18-.52A29.7,29.7,0,0,0,614.7,269.68Z" transform="translate(-353.81 -205.45)" style="fill:#FFFFFF"/><path d="M562.48,318.07a46.66,46.66,0,0,0-13.55,13.54,29.92,29.92,0,0,0-1.6,2.86,12.29,12.29,0,0,0-.52,1.18,12.29,12.29,0,0,0,1.18-.52,32.32,32.32,0,0,0,2.86-1.6A46.66,46.66,0,0,0,564.39,320a29.7,29.7,0,0,0,1.6-2.86,11.64,11.64,0,0,0,.52-1.17,11.64,11.64,0,0,0-1.17.52A29.7,29.7,0,0,0,562.48,318.07Z" transform="translate(-353.81 -205.45)" style="fill:#FFFFFF"/><path d="M860.06,540.75l-62-12.46a8.51,8.51,0,0,0-7.45,2.08l-84.26-17v0a3.5,3.5,0,0,0-2.74-4.12L697.28,508a3.49,3.49,0,0,0-4.11,2.74v0l-31.08-6.25-.19-5.74h32.63A13.49,13.49,0,0,0,708,485.3V455.13h33.14a6.76,6.76,0,0,0,6.76-6.75v-.85h4.53a7,7,0,0,0,6.74,3.9c5.18,0,6.25-8.59,6.25-17.58s-1.07-17.58-6.25-17.58a7,7,0,0,0-6.74,3.91H747.9v-.85a6.76,6.76,0,0,0-6.76-6.76H708V394a13.43,13.43,0,0,0-.58-3.87l42-13,4.89-1.5a85.29,85.29,0,1,0-88.25-112.77,85.28,85.28,0,1,0-90,112.6v5H542.81A13.48,13.48,0,0,0,529.34,394v5.47h-1a11.41,11.41,0,0,0-9.69,5.31l-1.84-2.24a4.22,4.22,0,0,0-6.44,0l-.89,1.09-2.12-2.59a4.21,4.21,0,0,0-6.44,0l-.89,1.09-2.13-2.6a4.22,4.22,0,0,0-6.44,0l-.89,1.09L488.4,398a4.21,4.21,0,0,0-6.44,0l-.89,1.09L479,396.54a4.21,4.21,0,0,0-6.44,0l-.89,1.08L469.49,395a4.22,4.22,0,0,0-6.44,0L461.46,397a10.9,10.9,0,0,0-10.46-7.9h-7.13a10.86,10.86,0,0,0-7.48,3c-20-4.53-36.16-9.58-48.2-15.06v-.13a12.55,12.55,0,0,0-12.54-12.53h-9.31a12.54,12.54,0,0,0-12.53,12.53v114a12.55,12.55,0,0,0,12.53,12.54h9.31a12.55,12.55,0,0,0,12.54-12.54v-.13a186.09,186.09,0,0,1,21.84-8.1V498.7h-5.44A4.29,4.29,0,0,0,400.3,503v.14h-6.12a6,6,0,1,0,0,12h6.12v.14a4.29,4.29,0,0,0,4.29,4.28H439.5a4.29,4.29,0,0,0,4.29-4.28v-.14h131.1l-1.41,41.15h-1a9.5,9.5,0,0,0-9.5,9.5v.78a9.5,9.5,0,0,0,9.5,9.51h92.45a9.51,9.51,0,0,0,9.51-9.51v-.78a9.5,9.5,0,0,0-9.51-9.5h-1l-1.35-39.45,28.3,5.69v0a3.49,3.49,0,0,0,2.73,4.12l6.36,1.28a3.5,3.5,0,0,0,4.12-2.74v0l84.27,17a8.5,8.5,0,0,0,6.06,4.8l62,12.47a8.53,8.53,0,0,0,10.05-6.68l.38-1.91A8.53,8.53,0,0,0,860.06,540.75ZM389.52,509.12c0-2.82,2.12-4.71,6.82-4.71C392,507,389.52,511.87,389.52,509.12Zm244.26,2.22a22.42,22.42,0,0,0-6.1-4.25,21.87,21.87,0,0,0-7.86-2,21.4,21.4,0,0,0-8.56,1.32,20.85,20.85,0,0,0-12.21,12.2,15.76,15.76,0,0,0-.65,2.09,16.17,16.17,0,0,0-.44,2.06,17,17,0,0,0-.24,2.27c-.08.62,0,1.4,0,2.09a21.52,21.52,0,0,0,2,7.91,22.54,22.54,0,0,0,4.25,6.11,22,22,0,0,0,5.11,3.89,26,26,0,0,0,2.46,1.19c.78.31,1.53.55,2.2.79a27.29,27.29,0,0,0,3.24.69l1.18.18-1.19.06a20.81,20.81,0,0,1-3.4-.09c-.72-.13-1.54-.25-2.41-.43a22.84,22.84,0,0,1-8.86-4.44,22.41,22.41,0,0,1-5.45-6.46,22.82,22.82,0,0,1-2.9-9.1,25.32,25.32,0,0,1,0-5,20.92,20.92,0,0,1,1.18-5.2,23.59,23.59,0,0,1,14.72-14.73A23.5,23.5,0,0,1,620,501.3a22.91,22.91,0,0,1,9.16,2.9,22.6,22.6,0,0,1,6.46,5.46,20.91,20.91,0,0,1,3.55,6.09,21.49,21.49,0,0,1,.89,2.77c.18.88.3,1.69.43,2.41a20.88,20.88,0,0,1,.09,3.41c0,.77-.06,1.18-.06,1.18s-.06-.4-.18-1.17a28.16,28.16,0,0,0-.7-3.24c-.24-.68-.48-1.42-.79-2.21a24.79,24.79,0,0,0-1.19-2.45A21.58,21.58,0,0,0,633.78,511.34Zm.92,15.28a15.89,15.89,0,1,1-15.89-15.89A15.89,15.89,0,0,1,634.7,526.62ZM366.34,372.13h9.31a4.72,4.72,0,0,1,4.72,4.72v5c16,8.11,38.24,14.38,60.42,19.1V400a3.08,3.08,0,0,1,3.08-3.08H451a3.08,3.08,0,0,1,3.08,3.08v3.71c36.65,6.88,69.66,9.62,69.66,9.62s.39-6,4.56-6h1v53.13h-1a3.57,3.57,0,0,1-2.52-1l-2.17-42.57-1.54,30.33q-1.92.56-3.84,1.05l-2-34-2.1,35c-1.53.33-3.06.64-4.58.92l-2.15-37-2.2,37.72c-1.48.23-3,.43-4.41.61l-2.22-39.34L496.27,452c-1.45.15-2.88.26-4.3.37l-2.28-41.24-2.29,41.53c-1.44.07-2.85.12-4.24.16l-2.3-42.7-2.3,42.77c-1.46,0-2.87,0-4.22,0L472,409.12l-2.3,43.63c-1.51-.06-2.92-.14-4.23-.22l-2.3-44.42-2.28,44.08c-1.86-.16-3.31-.32-4.29-.44l-2.26-44.66-2.28,45a14.06,14.06,0,0,1-9.31-.14l-2.13-44.84-2.13,44.64c-20.17,13.36-44.35,10.2-54,8.17l-4.24-75.67-4.46,79.4a15.55,15.55,0,0,1-14.24-.45V376.85A4.72,4.72,0,0,1,366.34,372.13Zm176.47,16.22H694.52a5.66,5.66,0,0,1,5.66,5.66v18.56h-4.81v-16a3.2,3.2,0,0,0-3.2-3.2h-147a3.2,3.2,0,0,0-3.2,3.2v78.88c-2-.19-3.62-.35-4.81-.48V394A5.67,5.67,0,0,1,542.81,388.35Zm39.15-26-2.07-.27a15.85,15.85,0,0,1-2.46-.42c-1.75-.41-3.75-.86-6-1.34-2.18-.74-4.61-1.46-7.17-2.42l-3.92-1.71c-.67-.3-1.37-.57-2.06-.9l-2-1.12a70.37,70.37,0,0,1-16.79-12.42A72.26,72.26,0,0,1,525.4,322a69.17,69.17,0,0,1-6.59-25.9c0-1.16-.06-2.32-.1-3.49l-.05-1.75.11-1.63c.08-1.26.17-2.53.25-3.8.05-.63.08-1.28.14-1.89l.3-1.69a54.22,54.22,0,0,1,1.41-6.83l.93-3.48c.29-1.17.82-2.26,1.22-3.4A67.69,67.69,0,0,1,563.15,228c1.14-.4,2.24-.93,3.41-1.22l3.48-.93a52.8,52.8,0,0,1,7-1.43l1.76-.3c.59-.06,1.18-.08,1.77-.13l3.53-.24.88-.06.44,0h.22c-.08,0,.33,0-.15,0h.12l1.89.05,3.74.11A69.18,69.18,0,0,1,617,230.4a72.68,72.68,0,0,1,19.79,14.1,70.34,70.34,0,0,1,12.41,16.78l1.13,2c.32.69.6,1.39.89,2.06l1.72,3.92c.95,2.56,1.68,5,2.41,7.17.51,2.24,1,4.24,1.36,6a17.38,17.38,0,0,1,.41,2.45l.27,2.06c.33,2.48.51,3.8.51,3.8s0-1.34.12-3.83q0-.94.06-2.1a18.07,18.07,0,0,0,0-2.53c-.13-1.82-.31-3.92-.52-6.28-.45-2.31-.87-4.91-1.51-7.7q-.63-2.07-1.29-4.29c-.24-.74-.45-1.51-.72-2.27l-.94-2.27a68.09,68.09,0,0,0-11.55-19.27l-2-2.42c-.68-.82-1.49-1.52-2.25-2.3s-1.46-1.45-2.21-2.18a75.88,75.88,0,1,1-115.13,95.61,72.86,72.86,0,0,0,15.34,17.57A67.81,67.81,0,0,0,554.5,358l2.27,1c.76.27,1.52.48,2.26.72l4.29,1.29c2.8.64,5.4,1.06,7.71,1.51,2.38.22,4.48.4,6.3.52a16.45,16.45,0,0,0,2.51,0l2.09-.05,3.83-.12Zm83.06-.67a116.9,116.9,0,0,0,25.23,11l-51.14,4.51,37.75,3.33H614.71A204.51,204.51,0,0,0,665,361.71Zm81.65,5a75.82,75.82,0,0,1-61.54-31.55,74.13,74.13,0,0,0,11,11.38A67.81,67.81,0,0,0,715.41,358l2.27,1c.76.27,1.52.48,2.26.72l4.29,1.29c2.8.64,5.4,1.06,7.71,1.51,2.38.22,4.48.4,6.3.52a16.45,16.45,0,0,0,2.51,0l2.09-.05,3.83-.12-3.8-.51-2.07-.27a15.85,15.85,0,0,1-2.46-.42c-1.75-.41-3.75-.86-6-1.34-2.18-.74-4.61-1.46-7.17-2.42l-3.92-1.71c-.67-.3-1.37-.57-2.06-.9l-2-1.12a70.37,70.37,0,0,1-16.79-12.42A72.23,72.23,0,0,1,686.32,322a69.18,69.18,0,0,1-6.6-25.9l-.09-3.49-.06-1.75.11-1.63c.09-1.26.17-2.53.25-3.8.05-.63.08-1.28.14-1.89l.3-1.69a54.22,54.22,0,0,1,1.41-6.83l.93-3.48c.3-1.17.83-2.26,1.22-3.4A67.69,67.69,0,0,1,724.06,228c1.14-.4,2.24-.93,3.41-1.22l3.48-.93a53.12,53.12,0,0,1,7-1.43l1.76-.3c.59-.06,1.18-.08,1.77-.13l3.53-.24.88-.06.44,0h.22c-.08,0,.33,0-.15,0h.12l1.89.05,3.75.11a69.18,69.18,0,0,1,25.74,6.58,72.52,72.52,0,0,1,19.79,14.1,70.34,70.34,0,0,1,12.41,16.78l1.13,2c.32.69.6,1.39.9,2.06l1.71,3.92c.95,2.56,1.68,5,2.41,7.17.51,2.24,1,4.24,1.36,6a16,16,0,0,1,.41,2.45l.27,2.06c.33,2.48.51,3.8.51,3.8s0-1.34.13-3.83c0-.63,0-1.33,0-2.1a18.07,18.07,0,0,0,0-2.53c-.13-1.82-.31-3.92-.52-6.28-.45-2.31-.87-4.91-1.51-7.7-.41-1.38-.85-2.81-1.29-4.29-.24-.74-.45-1.51-.72-2.27l-.94-2.27a68,68,0,0,0-11.54-19.27l-2-2.42c-.69-.82-1.5-1.52-2.26-2.3a56.81,56.81,0,0,0-4.86-4.52c-.61-.52-1.25-1-1.88-1.51a75.88,75.88,0,0,1-44.73,137.2ZM548.36,405.39l138.83-3.13-108.68-2.45H689v12.76H567.55a6.76,6.76,0,0,0-6.75,6.76v29.05a6.75,6.75,0,0,0,6.59,6.74h-.23s18.63,5.48,67.77,7.7l-63.86,2.48,83.22,3.24-1.47.39L554,472.77l63.21,2.46a397.81,397.81,0,0,1-68.87.78Zm2.25,87.07,20.57-.38,29.08-.35,33.33-.23c11.35,0,22.7-.06,33.33,0l15.34.11,7.1.08c1.14,0,2.32.06,3.28,0a8.46,8.46,0,0,0,2.83-.8,8.3,8.3,0,0,0,3.91-3.8,7.8,7.8,0,0,0,.75-2.41,12,12,0,0,0,.09-1.3c0-.44,0-.88,0-1.31,0-3.46.07-6.48.1-9a47.69,47.69,0,0,1,.29-5.76c.18-1.33.35-2,.35-2s.16.71.34,2a47.69,47.69,0,0,1,.29,5.76c0,2.48.06,5.5.1,9,0,.43,0,.87,0,1.31a13.2,13.2,0,0,1-.05,1.42,9.56,9.56,0,0,1-.85,3,10.25,10.25,0,0,1-8,5.68c-1.25.14-2.33.09-3.49.12l-7.1.08-15.34.11c-10.63.08-22,0-33.33,0l-33.33-.22-29.08-.36-20.57-.38-7.8-.18ZM740.5,439.23q-8.18,1-16.39,1.86a11,11,0,0,0,.32-1.16c2.11-.41,4-.81,5.62-1.14,4.46-.92,7-1.52,7-1.52s-2.6.06-7.14.29l-5.16.29c0-.39,0-.67,0-1a10.82,10.82,0,0,0-.1-1.57,13.5,13.5,0,0,0-1.87-5.39,12.72,12.72,0,0,0-3.36-3.7,11.71,11.71,0,0,0-3.65-1.89,11.28,11.28,0,0,0-3-.56,9.25,9.25,0,0,0-1.94.1l-.66.1.65.16c.43.08,1,.31,1.77.54a15,15,0,0,1,2.46,1.28,12.45,12.45,0,0,1,2.6,2.26,12.27,12.27,0,0,1,2.06,3.31,11.5,11.5,0,0,1,.84,4.11c0,.34,0,.78,0,1a8.82,8.82,0,0,1-.15,1.22A11.13,11.13,0,0,1,705.2,446a12.3,12.3,0,0,1-5.58-4.66,15,15,0,0,1-1.28-2.46,15.53,15.53,0,0,1-.54-1.77l-.17-.65s0,.23-.1.66a11.21,11.21,0,0,0-.1,1.94v.07l-4.32.17-3-18-3,18.23-2.45.09-7.37.26c-2.49,0-5,.1-7.54.19-5.08.21-10.24.28-15.4.37s-10.31.22-15.39.32l-14.93.23q-1.94,0-3.84,0L617,421.23l-3.26,19.82c-1.22,0-2.43,0-3.62,0l-3,0a13.36,13.36,0,0,0,.64-3c.08-.61,0-.94.06-1.42a10.74,10.74,0,0,0-.11-1.57,13.5,13.5,0,0,0-1.87-5.39,12.72,12.72,0,0,0-3.36-3.7,12.23,12.23,0,0,0-6.68-2.45,10,10,0,0,0-1.94.1l-.66.1.65.17a14.94,14.94,0,0,1,1.77.54,14.16,14.16,0,0,1,2.46,1.27,12.45,12.45,0,0,1,2.6,2.26,12.18,12.18,0,0,1,2.06,3.32,11.46,11.46,0,0,1,.84,4.11c0,.33,0,.78,0,1a8.82,8.82,0,0,1-.15,1.22,11.11,11.11,0,0,1-3,5.76,11.29,11.29,0,0,1-12.12,2.36,12.3,12.3,0,0,1-5.58-4.66,15,15,0,0,1-1.28-2.46c-.23-.74-.46-1.34-.54-1.77s-.16-.65-.16-.65,0,.23-.11.67a11.08,11.08,0,0,0-.1,1.94,12.56,12.56,0,0,0,.44,2.61l-2.06,0-7.15.15,1.85.3c1.2.18,3,.49,5.22.78l2.72.37a11.35,11.35,0,0,0,.53,1c-6.25-.28-11-.55-13.79-.73V420H740.5ZM436.39,475.67a10.91,10.91,0,0,0,7.48,3H451a10.9,10.9,0,0,0,10.43-7.82l1.62,2a4.21,4.21,0,0,0,6.44,0l2.13-2.59.89,1.09a4.22,4.22,0,0,0,6.44,0l2.12-2.6.89,1.09a4.21,4.21,0,0,0,6.44,0l2.13-2.59.89,1.09a4.22,4.22,0,0,0,6.44,0l2.13-2.59.89,1.08a4.21,4.21,0,0,0,6.44,0l2.12-2.59.89,1.09a4.22,4.22,0,0,0,6.44,0l1.89-2.3a11.41,11.41,0,0,0,9.64,5.24h1v16.21H434.05v-8.23ZM528,487.05l-4,.15c-2.56.06-6.22.22-10.6.29s-9.51.21-15,.23l-17.18.11-17.18-.11c-5.49,0-10.6-.17-15-.24s-8-.22-10.6-.28l-4-.15,4-.16c2.56-.06,6.21-.21,10.6-.28s9.5-.21,15-.24l17.18-.1,17.18.1c5.48,0,10.6.17,15,.24s8,.22,10.6.28Zm25.6,21c-5.92.25-12.83.46-20.23.6-3.7.05-7.53.16-11.41.17l-11.79.06-11.78-.07c-3.88,0-7.71-.11-11.41-.17-7.4-.13-14.31-.34-20.24-.59C454.94,507.62,447,507,447,507s7.9-.65,19.74-1.12c5.93-.25,12.84-.46,20.24-.6,3.7-.05,7.53-.16,11.41-.17l11.78-.06,11.79.06c3.88,0,7.71.12,11.41.17,7.4.14,14.31.34,20.23.6,11.85.46,19.75,1.12,19.75,1.12S565.49,507.63,553.64,508.09Zm-109.85-5V503a4.29,4.29,0,0,0-4.29-4.29h-5.45v-6.05h97.48a13.47,13.47,0,0,0,11.28,6.12h32.64l-.15,4.36Zm220.58,56.22-97.92,6.71v-.51c0-3.43,2.18-6.2,6.94-6.2Zm-17.91-3c-3.77.15-8.17.28-12.89.36s-9.74.11-14.77.14-10.06,0-14.78-.14-9.11-.21-12.88-.36-6.92-.35-9.12-.45-3.46-.22-3.46-.22,1.26-.11,3.46-.23,5.34-.31,9.12-.44,8.17-.28,12.88-.36,9.75-.12,14.78-.14,10.06,0,14.77.14,9.12.2,12.89.35,6.92.35,9.12.45,3.45.23,3.45.23-1.25.1-3.45.23S650.23,556.18,646.46,556.31Zm8.43-40.63a7.29,7.29,0,0,1-5.79-.15,7.72,7.72,0,0,1-2.3-1.57,8.25,8.25,0,0,1-2.42-5.49,8.7,8.7,0,0,1,.48-3.09,8.29,8.29,0,0,1,1.52-2.58,7.71,7.71,0,0,1,4.44-2.55,7,7,0,0,1,2-.08,6.07,6.07,0,0,1,1.49.31,5.93,5.93,0,0,1,1.17.53l-.33,0a7.33,7.33,0,0,0-.92,0,8.53,8.53,0,0,0-3,.6,7.49,7.49,0,0,0-3.19,2.55,7.41,7.41,0,0,0-1,2,6.5,6.5,0,0,0-.28,2.28,7,7,0,0,0,1.59,4.18A7.28,7.28,0,0,0,649.9,514a7,7,0,0,0,.92.52,5.78,5.78,0,0,0,.88.36,8,8,0,0,0,3.08.37,7.25,7.25,0,0,0,1.24-.17A5.25,5.25,0,0,1,654.89,515.68ZM683,513.23c-1.75-.14-3.79-.37-6-.69s-4.47-.69-6.77-1.14-4.56-1-6.69-1.51-4.1-1.1-5.78-1.63a56,56,0,0,1-5.55-2,56.37,56.37,0,0,1,5.9.26c1.76.14,3.79.37,6,.68s4.48.69,6.77,1.14,4.57,1,6.69,1.51,4.1,1.09,5.78,1.63a56,56,0,0,1,5.55,2A57.77,57.77,0,0,1,683,513.23Zm14.69-2a8.13,8.13,0,0,1,.51,2.07,13.9,13.9,0,0,1-1.6,8.38,8.41,8.41,0,0,1-1.25,1.73,8.37,8.37,0,0,1-.52-2.07,13.64,13.64,0,0,1,.16-4.32,13.46,13.46,0,0,1,1.46-4.06A8.18,8.18,0,0,1,697.64,511.21Zm76.1,21.36c-3.74-.5-8.08-1.16-12.72-2-2.32-.42-4.72-.78-7.15-1.27l-7.35-1.41-7.32-1.55c-2.42-.49-4.78-1.08-7.08-1.59-4.58-1.07-8.85-2.14-12.49-3.13-7.28-1.93-12.07-3.56-12.07-3.56s5,.34,12.51,1.38c3.74.49,8.09,1.15,12.73,1.94,2.31.42,4.72.79,7.14,1.27l7.35,1.41,7.33,1.54c2.42.49,4.78,1.08,7.08,1.59,4.58,1.07,8.84,2.14,12.48,3.13,7.29,1.94,12.08,3.57,12.08,3.57S781.21,533.6,773.74,532.57ZM793,541.32a14.07,14.07,0,0,1,1.62-8.38,8.18,8.18,0,0,1,1.24-1.73,8.13,8.13,0,0,1,.51,2.07,14.1,14.1,0,0,1-1.6,8.38,8.41,8.41,0,0,1-1.25,1.73A8.37,8.37,0,0,1,793,541.32Zm68.22,9.35a13.16,13.16,0,0,1-1.45,4.07,8.41,8.41,0,0,1-1.25,1.73,8.37,8.37,0,0,1-.52-2.07,14.07,14.07,0,0,1,1.62-8.38,8.44,8.44,0,0,1,1.24-1.74,8.29,8.29,0,0,1,.51,2.08A13.26,13.26,0,0,1,861.23,550.67Z" transform="translate(-353.81 -205.45)" style="fill:#FFFFFF"/><path d="M590.19,428.07a8.21,8.21,0,0,0-5.24,5.24,6.76,6.76,0,0,0-.4,1.88,6.23,6.23,0,0,0,0,.83,6.61,6.61,0,0,0,.06.93,7.8,7.8,0,0,0,3.08,5.37,7,7,0,0,0,2.15,1.12,6.78,6.78,0,0,0,1.8.33,5.07,5.07,0,0,0,1.14-.06l.4,0-.39-.1a8.57,8.57,0,0,1-1-.32,7.82,7.82,0,0,1-3-2.09,7,7,0,0,1-1.72-4.39,5.72,5.72,0,0,1,0-.61,4.26,4.26,0,0,1,.09-.72c.06-.28.15-.6.25-.92l8.82,5.15-5.25-9,.17-.09a6.73,6.73,0,0,1,2.57-.45,6.94,6.94,0,0,1,2.39.5,7.56,7.56,0,0,1,2,1.22,7.71,7.71,0,0,1,2.09,3c.14.44.28.79.33,1l.09.39.06-.4a6.79,6.79,0,0,0,.06-1.14,7,7,0,0,0-1.45-4,7.81,7.81,0,0,0-5.4-3.09A8.09,8.09,0,0,0,590.19,428.07Z" transform="translate(-353.81 -205.45)" style="fill:#FFFFFF"/><path d="M707.18,428.07a8.79,8.79,0,0,0-3.25,2,9,9,0,0,0-2,3.24,7.14,7.14,0,0,0-.39,1.88,6.23,6.23,0,0,0,0,.83,8.7,8.7,0,0,0,0,.93,7.85,7.85,0,0,0,3.09,5.37,7,7,0,0,0,2.15,1.12,6.78,6.78,0,0,0,1.79.33,5.12,5.12,0,0,0,1.15-.06l.4,0-.39-.1a8.57,8.57,0,0,1-1-.32,7.82,7.82,0,0,1-3-2.09,6.87,6.87,0,0,1-1.72-4.39,3.92,3.92,0,0,1,0-.61,4.26,4.26,0,0,1,.09-.72c.06-.27.15-.6.25-.91l8.8,5.14-5.25-9,.19-.1a6.73,6.73,0,0,1,2.57-.45,6.94,6.94,0,0,1,2.39.5,7.56,7.56,0,0,1,2,1.22,7.71,7.71,0,0,1,2.09,3c.14.44.28.79.33,1s.09.39.09.39l.06-.4a6.79,6.79,0,0,0,.06-1.14,7.2,7.2,0,0,0-1.45-4,7.81,7.81,0,0,0-5.4-3.09A8.09,8.09,0,0,0,707.18,428.07Z" transform="translate(-353.81 -205.45)" style="fill:#FFFFFF"/><path d="M749.8,297.65c-7.18,0-13-9.39-13-2.22a13,13,0,1,0,26,0C762.78,288.26,757,297.65,749.8,297.65Z" transform="translate(-353.81 -205.45)" style="fill:#FFFFFF"/><path d="M601.57,295.43c0-7.17-5.81,2.22-13,2.22s-13-9.39-13-2.22a13,13,0,1,0,26,0Z" transform="translate(-353.81 -205.45)" style="fill:#FFFFFF"/><circle cx="265.01" cy="321.16" r="10.58" style="fill:#FFFFFF"/><path d="M385.61,441l.88,17s29.6,5.37,49.91-7.72l.88-15.82S417.55,446,385.61,441Z" transform="translate(-353.81 -205.45)" style="fill:#FFFFFF"/><path d="M374.12,461.33l1.17-20.9a15.58,15.58,0,0,1-11.78,0v20.9A11.92,11.92,0,0,0,374.12,461.33Z" transform="translate(-353.81 -205.45)" style="fill:#FFFFFF"/><path d="M450.93,450.81l1-20.9s-4.66,2.6-8.77,0l.87,20.9A8,8,0,0,0,450.93,450.81Z" transform="translate(-353.81 -205.45)" style="fill:#FFFFFF"/><path d="M621.14,435.45l.78,4.21s42.32-.26,63.87-1.93l.79-4.27S658.51,437.27,621.14,435.45Z" transform="translate(-353.81 -205.45)" style="fill:#FFFFFF"/><path d="M556.31,441.08a26.33,26.33,0,0,0,.9,3.91,27.24,27.24,0,0,0,.89-3.91,40.2,40.2,0,0,0,.48-4c.12-1.46.19-3,.19-4.59s-.07-3.13-.19-4.59-.28-2.84-.48-4a27.24,27.24,0,0,0-.89-3.91,26.33,26.33,0,0,0-.9,3.91c-.2,1.17-.37,2.54-.48,4s-.19,3-.19,4.59.07,3.13.19,4.59S556.11,439.91,556.31,441.08Z" transform="translate(-353.81 -205.45)" style="fill:#FFFFFF"/><path d="M391.07,392.13a85.24,85.24,0,0,0,8.3,3.77c1.57.58,3.17,1.21,4.84,1.75s3.35,1.09,5.07,1.56,3.42.94,5.13,1.31,3.39.75,5,1.05,3.23.55,4.73.79,2.94.37,4.27.51c2.63.33,4.86.37,6.41.45s2.44.06,2.44.06-.86-.26-2.35-.67l-6.19-1.61c-1.28-.33-2.66-.69-4.12-1s-3-.81-4.59-1.19-3.21-.9-4.88-1.29-3.34-.93-5-1.39-3.35-1-5-1.42l-4.82-1.47c-1.55-.53-3.08-1-4.49-1.46l-4-1.36c-2.47-.89-4.54-1.63-6-2.21s-2.26-.91-2.26-.91.68.57,2,1.46A56,56,0,0,0,391.07,392.13Z" transform="translate(-353.81 -205.45)" style="fill:#FFFFFF"/><path d="M375.62,375.45h-7.71a3.42,3.42,0,0,0-3.42,3.42v17.77C366.08,378.38,375.62,375.45,375.62,375.45Z" transform="translate(-353.81 -205.45)" style="fill:#FFFFFF"/></svg>